<svg width="24" height="24" viewBox="0 0 24 24" fill="none" xmlns="http://www.w3.org/2000/svg">
<path d="M17.6201 10.7501C17.1901 10.7501 16.8501 10.4001 16.8501 9.9801C16.8501 9.6101 16.4801 8.8401 15.8601 8.1701C15.2501 7.5201 14.5801 7.1401 14.0201 7.1401C13.5901 7.1401 13.2501 6.7901 13.2501 6.3701C13.2501 5.9501 13.6001 5.6001 14.0201 5.6001C15.0201 5.6001 16.0701 6.1401 16.9901 7.1101C17.8501 8.0201 18.4001 9.1501 18.4001 9.9701C18.4001 10.4001 18.0501 10.7501 17.6201 10.7501Z" fill="#F5D3AB"/>
<path d="M21.2301 10.75C20.8001 10.75 20.4601 10.4 20.4601 9.98C20.4601 6.43 17.5701 3.55 14.0301 3.55C13.6001 3.55 13.2601 3.2 13.2601 2.78C13.2601 2.36 13.6001 2 14.0201 2C18.4201 2 22.0001 5.58 22.0001 9.98C22.0001 10.4 21.6501 10.75 21.2301 10.75Z" fill="#F5D3AB"/>
<path d="M11.0501 14.95L9.20009 16.8C8.81009 17.19 8.19009 17.19 7.79009 16.81C7.68009 16.7 7.57009 16.6 7.46009 16.49C6.43009 15.45 5.50009 14.36 4.67009 13.22C3.85009 12.08 3.19009 10.94 2.71009 9.81C2.24009 8.67 2.00009 7.58 2.00009 6.54C2.00009 5.86 2.12009 5.21 2.36009 4.61C2.60009 4 2.98009 3.44 3.51009 2.94C4.15009 2.31 4.85009 2 5.59009 2C5.87009 2 6.15009 2.06 6.40009 2.18C6.66009 2.3 6.89009 2.48 7.07009 2.74L9.39009 6.01C9.57009 6.26 9.70009 6.49 9.79009 6.71C9.88009 6.92 9.93009 7.13 9.93009 7.32C9.93009 7.56 9.86009 7.8 9.72009 8.03C9.59009 8.26 9.40009 8.5 9.16009 8.74L8.40009 9.53C8.29009 9.64 8.24009 9.77 8.24009 9.93C8.24009 10.01 8.25009 10.08 8.27009 10.16C8.30009 10.24 8.33009 10.3 8.35009 10.36C8.53009 10.69 8.84009 11.12 9.28009 11.64C9.73009 12.16 10.2101 12.69 10.7301 13.22C10.8301 13.32 10.9401 13.42 11.0401 13.52C11.4401 13.91 11.4501 14.55 11.0501 14.95Z" fill="#F5D3AB"/>
<path d="M21.9701 18.33C21.9701 18.61 21.9201 18.9 21.8201 19.18C21.7901 19.26 21.7601 19.34 21.7201 19.42C21.5501 19.78 21.3301 20.12 21.0401 20.44C20.5501 20.98 20.0101 21.37 19.4001 21.62C19.3901 21.62 19.3801 21.63 19.3701 21.63C18.7801 21.87 18.1401 22 17.4501 22C16.4301 22 15.3401 21.76 14.1901 21.27C13.0401 20.78 11.8901 20.12 10.7501 19.29C10.3601 19 9.9701 18.71 9.6001 18.4L12.8701 15.13C13.1501 15.34 13.4001 15.5 13.6101 15.61C13.6601 15.63 13.7201 15.66 13.7901 15.69C13.8701 15.72 13.9501 15.73 14.0401 15.73C14.2101 15.73 14.3401 15.67 14.4501 15.56L15.2101 14.81C15.4601 14.56 15.7001 14.37 15.9301 14.25C16.1601 14.11 16.3901 14.04 16.6401 14.04C16.8301 14.04 17.0301 14.08 17.2501 14.17C17.4701 14.26 17.7001 14.39 17.9501 14.56L21.2601 16.91C21.5201 17.09 21.7001 17.3 21.8101 17.55C21.9101 17.8 21.9701 18.05 21.9701 18.33Z" fill="#F5D3AB"/>
</svg>
