<svg width="24" height="24" viewBox="0 0 24 24" fill="none" xmlns="http://www.w3.org/2000/svg">
<path d="M16.1901 2H7.81009C4.17009 2 2.00009 4.17 2.00009 7.81V16.18C2.00009 19.83 4.17009 22 7.81009 22H16.1801C19.8201 22 21.9901 19.83 21.9901 16.19V7.81C22.0001 4.17 19.8301 2 16.1901 2ZM12.0001 15.88C9.86009 15.88 8.12009 14.14 8.12009 12C8.12009 9.86 9.86009 8.12 12.0001 8.12C14.1401 8.12 15.8801 9.86 15.8801 12C15.8801 14.14 14.1401 15.88 12.0001 15.88ZM17.9201 6.88C17.8701 7 17.8001 7.11 17.7101 7.21C17.6101 7.3 17.5001 7.37 17.3801 7.42C17.2601 7.47 17.1301 7.5 17.0001 7.5C16.7301 7.5 16.4801 7.4 16.2901 7.21C16.2001 7.11 16.1301 7 16.0801 6.88C16.0301 6.76 16.0001 6.63 16.0001 6.5C16.0001 6.37 16.0301 6.24 16.0801 6.12C16.1301 5.99 16.2001 5.89 16.2901 5.79C16.5201 5.56 16.8701 5.45 17.1901 5.52C17.2601 5.53 17.3201 5.55 17.3801 5.58C17.4401 5.6 17.5001 5.63 17.5601 5.67C17.6101 5.7 17.6601 5.75 17.7101 5.79C17.8001 5.89 17.8701 5.99 17.9201 6.12C17.9701 6.24 18.0001 6.37 18.0001 6.5C18.0001 6.63 17.9701 6.76 17.9201 6.88Z" fill="#F5D3AB"/>
</svg>
