<svg width="24" height="24" viewBox="0 0 24 24" fill="none" xmlns="http://www.w3.org/2000/svg">
<path d="M17.0001 3.5H7.00009C4.00009 3.5 2.00009 5 2.00009 8.5V15.5C2.00009 19 4.00009 20.5 7.00009 20.5H17.0001C20.0001 20.5 22.0001 19 22.0001 15.5V8.5C22.0001 5 20.0001 3.5 17.0001 3.5ZM17.4701 9.59L14.3401 12.09C13.6801 12.62 12.8401 12.88 12.0001 12.88C11.1601 12.88 10.3101 12.62 9.66009 12.09L6.53009 9.59C6.21009 9.33 6.16009 8.85 6.41009 8.53C6.67009 8.21 7.14009 8.15 7.46009 8.41L10.5901 10.91C11.3501 11.52 12.6401 11.52 13.4001 10.91L16.5301 8.41C16.8501 8.15 17.3301 8.2 17.5801 8.53C17.8401 8.85 17.7901 9.33 17.4701 9.59Z" fill="#F5D3AB"/>
</svg>
